<svg width="40" height="40" viewBox="0 0 40 40" fill="none" xmlns="http://www.w3.org/2000/svg">
<g clip-path="url(#clip0_152_4953)">
<path d="M4.99987 0.00823975C0.00102488 0.00823975 0 5.00824 0 5.00824V27.5082C0 27.5082 0 32.5082 4.99987 32.5082H34.9991C34.9991 32.5082 39.9978 32.5082 39.999 27.5082V5.00824C39.999 5.00824 40 0.00823975 34.9991 0.00823975H4.99987ZM4.99987 5.00824H34.9991V27.5082L4.99987 27.4482V5.00824ZM7.49981 37.5082L7.50027 39.9998H32.4996L32.4992 37.5082C32.4992 35.0082 29.9992 35.0082 29.9992 35.0082H9.94527C9.94527 35.0082 7.49981 35.0082 7.49981 37.5082Z" fill="#DEDEDE"/>
<path d="M29.9994 20H9.99994C9.99994 20 7.5 20 7.5 22.5C7.5 25 9.99994 25 9.99994 25H29.9994C29.9994 25 32.4994 25 32.4994 22.5C32.4994 20 29.9994 20 29.9994 20Z" fill="#DEDEDE"/>
</g>
<defs>
<clipPath id="clip0_152_4953">
<rect width="40" height="40" fill="white"/>
</clipPath>
</defs>
</svg>
